<svg id="Layer_1" data-name="Layer 1" xmlns="http://www.w3.org/2000/svg" viewBox="0 0 512 512"><title>airplane-plane-flat</title><rect y="9.13" width="512.01" height="493.73" rx="54.99" ry="54.99" transform="translate(512) rotate(90)" fill="#e6d6a6"/><rect x="20.23" y="11.09" width="471.54" height="489.81" rx="43.89" ry="43.89" fill="#906d88"/><path d="M347.85,230.07l-16.5-1.19L235.09,116.17q-11.38-14.53-22-14.53H199.73l61,130.33-84.64,6.28-33.06-37H117.4l33.92,51.86-33.86,56.95h25.59l33-37,84.64,6.3-61,131h13.36q10.59,0,22-14.54l96.26-112.72,16.5-1.18c3.92-.52,7.53-1,10.79-1.37A107.57,107.57,0,0,0,371.41,278a40,40,0,0,0,15.52-8.25q7.67-6.28,7.67-13.75Q394.6,234,347.85,230.07Z" fill="#e6d6a6"/></svg>